<svg xmlns="http://www.w3.org/2000/svg" width="57.684" height="28.525" viewBox="0 0 57.684 28.525">
  <g id="Group_647" data-name="Group 647" transform="translate(-544.825 -105.871)">
    <g id="Group_643" data-name="Group 643" transform="translate(544.825 105.871)">
      <path id="Path_100" data-name="Path 100" d="M28.842,25.44c-4.12,0-6.218,3.086-13.312,3.086C6.954,28.525,0,23.072,0,14.263S6.954,0,15.53,0c7.094,0,9.191,3.086,13.312,3.086S35.06,0,42.154,0c8.576,0,15.53,5.453,15.53,14.263S50.73,28.525,42.154,28.525C35.06,28.525,32.962,25.44,28.842,25.44Z" transform="translate(0 0)" fill="#8dcca4"/>
    </g>
    <path id="Path_101" data-name="Path 101" d="M39.93,14.487c0,6.171-4.344,11.177-9.695,11.177S20.54,20.658,20.54,14.487,24.884,3.31,30.235,3.31,39.93,8.316,39.93,14.487Z" transform="translate(543.432 105.647)" fill="#5f9873"/>
    <g id="Group_644" data-name="Group 644" transform="translate(549.663 114.373)">
      <path id="Path_102" data-name="Path 102" d="M10.317,20.3H7.511V11.9H5.19V9.51h7.439v2.377H10.308V20.3Z" transform="translate(-5.19 -9.146)" fill="#fff"/>
      <path id="Path_103" data-name="Path 103" d="M27.142,14.676a5.733,5.733,0,0,1-5.966,5.947,5.756,5.756,0,1,1,0-11.5A5.77,5.77,0,0,1,27.142,14.676Z" transform="translate(-5.869 -9.12)" fill="#fff"/>
      <path id="Path_104" data-name="Path 104" d="M41.668,14.247a6.9,6.9,0,0,1-1.1,4.26,5.218,5.218,0,0,1-4.447,2.116,5.451,5.451,0,0,1-5.752-5.7A5.517,5.517,0,0,1,36.224,9.12a5.011,5.011,0,0,1,4.866,3.02l-2.675,1.119a2.439,2.439,0,0,0-2.33-1.715c-1.846,0-2.806,1.762-2.806,3.4,0,1.678,1,3.375,2.843,3.375a2.055,2.055,0,0,0,2.265-1.874H36.094v-2.2h5.575Z" transform="translate(-6.897 -9.12)" fill="#fff"/>
      <path id="Path_105" data-name="Path 105" d="M56.752,14.676A5.981,5.981,0,1,1,50.786,9.12,5.733,5.733,0,0,1,56.752,14.676Z" transform="translate(-7.877 -9.12)" fill="#fff"/>
    </g>
  </g>
</svg>
